<svg width="98" height="100" viewBox="0 0 98 100" fill="none" xmlns="http://www.w3.org/2000/svg">
<path d="M37.7683 48.4688H60.0931C66.3077 48.4688 71.2031 43.2104 71.2031 36.9698V15.687C71.2031 9.62936 66.1255 5.07848 60.0595 4.06786C56.2206 3.42856 52.2539 3.13762 48.4319 3.156C44.6114 3.17361 41.0727 3.499 37.8625 4.06786C28.4032 5.73769 26.7969 9.23659 26.7969 15.687V23.9688H49V27.0312H18.2035C11.7079 27.0312 6.01934 30.9421 4.24079 38.3709C2.18815 46.8847 2.09704 52.0902 4.24079 60.9798C5.82947 67.5964 9.62314 72.2031 16.1195 72.2031H23.7344V62.2132C23.7344 54.8349 30.1871 48.4688 37.7683 48.4688ZM36.3611 18.5252C34.0443 18.5252 32.167 16.6272 32.167 14.2798C32.167 11.9224 34.0435 10.0068 36.3611 10.0068C38.6694 10.0068 40.5559 11.9224 40.5559 14.2798C40.5552 16.6272 38.6687 18.5252 36.3611 18.5252ZM93.6214 38.3709C92.0151 31.9029 88.9488 27.0312 82.444 27.0312H74.2656V36.9698C74.2656 44.6644 67.5327 50.7656 60.0931 50.7656H37.7683C31.6525 50.7656 26.7969 56.3746 26.7969 62.4996V83.784C26.7969 89.8401 31.961 93.4033 37.8693 95.1413C44.9453 97.2215 51.646 97.5974 60.1115 95.1413C65.7381 93.5112 71.2031 90.2328 71.2031 83.784V75.2656H49V72.2031H82.444C88.9396 72.2031 91.3613 67.7809 93.6214 60.9791C95.9543 53.9774 95.854 47.3517 93.6214 38.3709ZM61.4996 80.9443C63.8171 80.9443 65.6945 82.8422 65.6945 85.1912C65.6945 87.5462 63.8179 89.4626 61.4996 89.4626C59.1912 89.4626 57.3055 87.547 57.3055 85.1912C57.3055 82.8422 59.1912 80.9443 61.4996 80.9443Z" fill="#A0AEC0"/>
</svg>
